<?xml version="1.0" standalone="no"?>
<!DOCTYPE svg PUBLIC "-//W3C//DTD SVG 20010904//EN"
 "http://www.w3.org/TR/2001/REC-SVG-20010904/DTD/svg10.dtd">
<svg version="1.0" xmlns="http://www.w3.org/2000/svg"
 width="2083.000000pt" height="2083.000000pt" viewBox="0 0 2083.000000 2083.000000"
 preserveAspectRatio="xMidYMid meet">
<metadata>
Created by potrace 1.11, written by Peter Selinger 2001-2013
</metadata>
<g transform="translate(0.000000,2083.000000) scale(0.100000,-0.100000)"
fill="#000000" stroke="none">
<path d="M9935 20480 c-2891 -151 -5498 -1466 -7333 -3698 -952 -1158 -1662
-2598 -2001 -4057 -182 -783 -264 -1500 -264 -2310 0 -393 10 -602 43 -956
181 -1918 909 -3745 2093 -5254 264 -336 487 -585 817 -915 511 -512 984 -900
1565 -1285 2033 -1347 4479 -1905 6915 -1579 2855 382 5411 1981 7025 4394
918 1372 1479 2939 1645 4590 36 365 45 558 45 1010 -1 450 -9 630 -46 1000
-241 2424 -1344 4659 -3124 6333 -1716 1614 -3879 2553 -6255 2717 -209 15
-915 21 -1125 10z m110 -79 c4 5 15 4 28 -3 12 -6 22 -11 22 -10 0 5 55 19 59
14 10 -10 37 -11 30 -1 -8 13 10 11 25 -3 8 -7 11 -8 8 -2 -4 8 10 10 46 9 29
-2 52 -4 52 -5 0 -1 8 -3 18 -5 9 -2 15 0 13 4 -6 9 101 7 110 -2 4 -3 16 -2
27 4 15 9 18 8 12 -2 -6 -9 -4 -10 6 -3 19 12 33 12 41 -1 5 -7 8 -7 8 1 0 12
59 12 79 0 9 -6 12 -5 7 2 -4 7 5 9 26 7 18 -2 33 -4 33 -5 0 -1 34 -3 75 -5
41 -1 75 -3 75 -4 0 -2 8 -4 18 -6 9 -2 15 0 12 4 -7 13 73 5 89 -8 10 -8 16
-9 21 -1 3 6 12 7 18 3 16 -10 57 -12 52 -2 -3 4 10 5 27 2 42 -7 63 -11 63
-13 0 -1 8 -3 18 -5 9 -2 15 0 12 5 -4 7 24 6 33 0 1 -2 19 -3 40 -4 20 -1 43
-5 51 -10 10 -7 12 -6 6 4 -6 10 -4 11 6 4 8 -5 21 -9 29 -9 8 0 20 -4 27 -8
6 -4 14 -3 18 3 4 6 13 7 23 2 9 -5 24 -8 32 -7 8 1 23 -3 34 -8 13 -7 16 -6
11 3 -6 9 -2 9 14 1 11 -7 21 -9 21 -5 0 3 6 2 13 -4 8 -7 18 -7 27 -2 8 5 21
5 32 -1 10 -5 18 -7 18 -3 0 3 6 2 13 -4 8 -7 18 -7 27 -2 8 5 19 6 25 2 5 -3
19 -7 30 -9 11 -1 37 -5 58 -8 20 -3 52 -7 70 -9 46 -7 75 -14 89 -22 7 -5 8
-3 3 6 -6 9 -4 11 5 5 12 -7 51 -14 98 -17 12 -1 22 -5 22 -8 0 -3 14 -5 30
-4 17 1 30 -1 30 -6 0 -4 11 -6 25 -5 14 2 25 0 25 -3 0 -4 17 -8 38 -10 49
-3 64 -6 80 -15 7 -5 12 -3 13 5 0 10 2 10 6 0 2 -6 9 -10 14 -6 5 3 9 1 9 -4
0 -5 11 -8 25 -7 14 2 25 0 25 -4 0 -5 11 -6 24 -4 13 3 27 0 31 -7 5 -8 11
-8 23 2 10 7 13 8 9 3 -7 -8 28 -18 130 -39 7 -1 16 -5 19 -9 4 -4 13 -2 20 4
8 7 14 6 20 -2 5 -8 3 -9 -6 -4 -8 5 -11 4 -6 -3 3 -6 18 -9 32 -6 16 3 23 1
19 -6 -3 -6 0 -7 10 -4 8 4 23 0 32 -7 14 -12 16 -12 8 1 -7 11 -2 10 19 -4
16 -10 25 -12 21 -5 -6 8 -4 10 6 3 8 -4 23 -10 33 -11 11 -2 26 -9 35 -16 12
-10 13 -9 6 3 -8 13 -7 13 8 1 9 -7 17 -10 17 -6 0 4 7 2 15 -5 8 -7 15 -9 15
-5 0 4 8 1 17 -6 15 -12 16 -12 8 1 -5 9 1 7 15 -5 14 -12 20 -14 15 -5 -7 12
-6 13 7 3 8 -7 18 -10 21 -6 4 3 7 1 7 -5 0 -6 9 -9 20 -7 11 2 20 -1 20 -7 0
-6 3 -8 7 -5 3 4 13 1 21 -6 13 -10 14 -9 7 3 -7 12 -6 13 7 3 8 -7 18 -10 21
-6 4 3 7 0 7 -7 0 -7 3 -10 7 -7 3 4 13 1 21 -6 13 -10 14 -9 7 3 -5 9 1 7 15
-5 14 -12 20 -14 15 -5 -7 12 -6 13 7 3 8 -7 18 -10 21 -6 4 3 7 0 7 -7 0 -7
3 -10 7 -7 3 4 13 1 21 -6 13 -10 14 -9 7 3 -5 9 1 7 15 -5 14 -12 20 -14 15
-5 -8 13 -7 13 8 1 9 -7 17 -10 17 -6 0 4 12 0 26 -10 18 -11 24 -13 19 -4 -5
8 2 5 15 -6 14 -12 20 -14 15 -5 -5 9 1 7 15 -5 14 -12 20 -14 15 -5 -8 13 -7
13 8 1 9 -7 17 -10 17 -6 0 4 6 2 13 -4 8 -6 17 -8 20 -4 4 3 7 1 7 -5 0 -6 9
-9 20 -7 11 2 20 -1 20 -6 0 -6 5 -7 10 -4 6 3 10 1 10 -6 0 -7 3 -9 7 -6 3 4
17 0 31 -9 17 -11 22 -12 17 -3 -5 8 2 5 15 -6 14 -12 20 -14 15 -5 -8 13 -7
13 10 0 10 -8 21 -14 24 -14 8 2 7 2 161 -55 211 -79 231 -87 225 -93 -4 -3 0
-6 7 -5 34 1 49 -4 42 -15 -4 -6 -3 -8 3 -5 14 9 125 -37 116 -48 -5 -4 -3 -5
3 -2 24 14 612 -262 857 -401 59 -34 107 -58 107 -54 0 4 4 2 8 -3 9 -13 143
-93 156 -93 5 0 12 -4 15 -10 3 -5 63 -43 133 -84 70 -42 124 -79 120 -83 -4
-5 -1 -5 5 -1 12 6 127 -65 145 -89 4 -5 8 -6 8 -1 0 5 11 -3 25 -18 14 -15
25 -24 25 -20 0 3 16 -6 35 -20 19 -15 35 -24 35 -20 0 3 9 -4 21 -17 11 -13
18 -17 14 -9 -4 8 3 4 15 -10 12 -14 19 -18 15 -10 -4 8 3 4 15 -10 12 -14 18
-18 14 -10 -4 8 5 2 19 -13 15 -16 32 -25 39 -21 7 4 8 3 4 -4 -7 -11 6 -17
28 -13 5 1 4 -4 -3 -12 -9 -12 -8 -15 6 -13 11 0 17 -5 15 -13 -3 -12 -1 -12
14 0 15 12 17 12 9 0 -6 -11 -4 -13 8 -8 9 3 16 3 14 -1 -1 -4 3 -8 8 -10 6
-2 14 -10 18 -18 5 -8 13 -11 19 -8 7 5 9 2 5 -9 -4 -12 -1 -15 14 -12 11 2
17 0 14 -4 -3 -5 2 -12 11 -15 8 -3 12 -11 8 -17 -5 -8 -3 -9 5 -5 7 5 21 0
32 -10 10 -9 19 -14 19 -10 0 4 16 -9 35 -29 20 -19 40 -35 45 -35 5 0 15 -8
22 -17 7 -10 22 -23 33 -30 11 -6 19 -16 18 -22 -2 -6 3 -8 11 -5 8 3 21 -5
30 -18 9 -12 16 -18 16 -13 1 6 9 -1 20 -14 11 -12 18 -27 15 -31 -3 -5 -1
-11 4 -15 6 -3 8 4 6 16 -3 17 -2 19 10 9 8 -7 12 -17 8 -23 -3 -5 -1 -7 4 -4
6 4 25 -7 42 -24 28 -26 30 -33 19 -47 -12 -15 -11 -16 4 -3 16 12 25 6 83
-44 35 -32 62 -61 59 -66 -3 -5 1 -6 9 -3 17 6 60 -43 50 -59 -3 -5 -2 -7 4
-4 14 9 55 -22 47 -36 -4 -7 -3 -9 1 -4 9 8 47 -22 40 -32 -2 -4 5 -8 16 -8
18 -2 19 0 8 15 -11 15 -11 15 1 4 8 -7 15 -18 15 -25 1 -7 6 -11 11 -10 12 2
81 -65 86 -82 1 -5 7 -9 13 -7 6 1 22 -10 36 -25 l24 -28 -26 23 c-30 26 -36
27 -36 8 0 -8 5 -14 11 -13 6 1 10 -4 8 -10 -1 -7 4 -13 12 -13 8 0 17 -7 20
-16 4 -9 9 -14 12 -12 3 3 28 -19 56 -49 29 -29 57 -52 63 -49 7 2 37 -21 66
-51 30 -31 49 -53 43 -49 -7 3 -14 0 -17 -8 -4 -9 0 -13 11 -11 25 4 64 -35
51 -51 -7 -8 -6 -14 2 -20 7 -4 9 -3 6 3 -4 6 0 14 9 17 9 3 12 2 9 -5 -4 -5
31 -48 78 -93 46 -46 110 -117 142 -159 31 -42 62 -74 68 -70 5 3 7 1 3 -5 -3
-6 0 -17 8 -25 8 -8 12 -18 8 -23 -4 -5 1 -2 10 5 15 11 17 10 13 -7 -2 -12 3
-23 11 -26 9 -3 12 -11 9 -16 -4 -6 -2 -9 2 -8 5 2 22 -10 37 -27 15 -16 25
-25 22 -18 -4 6 -1 15 6 19 7 4 10 4 6 -1 -4 -4 -2 -15 5 -23 9 -13 9 -14 0
-8 -7 4 -13 3 -13 -2 0 -15 28 -34 39 -28 5 4 13 1 17 -5 4 -7 3 -9 -4 -5 -6
3 -13 2 -17 -4 -4 -6 6 -10 22 -11 16 -1 21 -3 11 -6 -14 -3 -15 -7 -5 -18 9
-9 14 -10 20 -1 5 6 7 2 4 -11 -4 -18 -1 -23 16 -23 15 0 18 -3 9 -8 -9 -6 -7
-13 10 -28 16 -13 19 -14 10 -2 -10 12 -10 18 -1 24 7 4 9 3 5 -4 -3 -6 -2
-14 4 -17 8 -5 8 -11 0 -20 -9 -11 -6 -12 12 -8 18 4 20 3 8 -6 -11 -8 -12
-11 -2 -11 8 0 10 -5 6 -12 -6 -10 -5 -10 7 -1 12 10 15 8 16 -8 1 -12 -3 -17
-9 -13 -7 4 -8 2 -4 -4 4 -6 13 -9 22 -5 9 3 14 0 12 -8 -2 -8 3 -13 10 -11 6
1 11 -4 10 -10 -2 -7 3 -12 11 -10 12 3 12 0 2 -12 -9 -11 -9 -16 0 -22 8 -4
9 -3 5 4 -4 7 -3 12 3 12 5 0 13 -9 16 -20 3 -11 11 -20 16 -20 5 0 9 -5 9
-11 0 -5 -5 -7 -12 -3 -7 4 -8 3 -4 -4 4 -6 14 -8 24 -5 15 6 15 5 3 -10 -12
-15 -12 -17 4 -11 13 5 16 4 11 -4 -4 -8 -1 -12 10 -12 10 0 14 -3 11 -6 -4
-4 3 -15 14 -25 13 -11 19 -25 15 -34 -3 -9 -2 -14 3 -11 13 8 34 -21 25 -35
-4 -7 -3 -9 3 -6 6 4 19 -3 29 -16 13 -14 14 -18 4 -12 -9 6 -5 0 8 -11 15
-14 22 -27 17 -34 -5 -8 -4 -11 2 -7 13 8 37 -18 29 -31 -3 -6 2 -16 12 -23
16 -13 16 -13 2 5 -9 12 -10 17 -3 12 7 -4 18 -16 24 -28 9 -16 8 -19 -3 -12
-11 6 -11 5 1 -9 7 -9 17 -15 21 -12 4 3 7 -3 6 -13 0 -9 5 -16 12 -14 8 1 11
-2 7 -8 -3 -5 0 -10 7 -11 10 0 10 -2 1 -6 -8 -3 -4 -13 12 -31 14 -15 28 -35
31 -45 3 -9 10 -15 15 -12 8 6 14 -16 10 -38 -1 -5 3 -6 8 -2 14 8 45 -41 35
-56 -4 -8 -3 -9 4 -5 14 9 46 -39 36 -55 -4 -8 -3 -9 4 -5 14 9 46 -39 36 -55
-4 -8 -3 -9 4 -5 13 8 45 -47 34 -59 -4 -5 -2 -5 5 -1 7 4 17 -3 24 -16 12
-22 11 -22 -7 -8 -16 12 -16 11 2 -10 12 -14 37 -53 56 -88 19 -34 38 -59 43
-55 4 5 5 3 2 -3 -4 -7 0 -17 9 -24 8 -7 13 -19 10 -27 -3 -8 -1 -11 4 -8 6 3
10 -1 10 -10 0 -9 4 -13 10 -10 6 4 7 -1 3 -11 -5 -13 -3 -15 7 -9 8 5 11 4 6
-3 -3 -6 -1 -14 5 -17 5 -4 8 -13 5 -21 -3 -7 0 -16 6 -20 7 -4 8 -3 4 4 -4 7
-5 12 -2 12 11 0 46 -81 40 -92 -4 -6 -3 -8 4 -4 6 4 16 -8 23 -28 7 -19 16
-33 21 -30 5 3 8 2 7 -3 -4 -17 13 -63 22 -57 5 3 6 -3 2 -12 -4 -12 -3 -15 5
-10 8 4 10 2 6 -7 -3 -8 0 -18 5 -22 12 -7 45 -75 43 -87 -1 -5 2 -8 7 -8 14
0 58 -84 55 -103 -1 -10 2 -14 9 -10 6 4 8 0 4 -10 -4 -10 -2 -16 6 -14 7 1
12 -8 11 -20 0 -12 4 -21 10 -20 6 1 11 -8 10 -20 0 -12 2 -20 6 -18 4 2 16
-16 28 -41 13 -26 17 -42 10 -38 -7 4 -2 -5 12 -21 14 -16 18 -25 10 -20 -8 5
-5 -3 8 -17 12 -13 20 -27 16 -30 -3 -3 18 -56 46 -117 28 -62 59 -133 69
-159 10 -26 22 -56 26 -67 4 -11 7 -24 6 -28 0 -4 4 -18 11 -30 7 -12 11 -25
10 -29 -1 -5 3 -8 9 -8 5 0 7 -4 4 -10 -3 -5 -1 -10 5 -10 6 0 9 -4 6 -9 -3
-5 10 -42 28 -82 19 -41 55 -142 80 -224 25 -83 70 -222 101 -309 54 -155 88
-283 89 -338 1 -14 4 -24 7 -22 4 2 10 -12 13 -31 4 -20 11 -33 16 -30 4 3 6
-5 2 -17 -4 -16 -2 -19 9 -13 12 7 12 6 0 -9 -11 -13 -12 -19 -3 -25 7 -4 10
-15 6 -24 -3 -10 -1 -17 5 -17 6 0 11 -5 11 -11 0 -5 -4 -7 -10 -4 -6 3 -7 -1
-4 -9 3 -9 10 -13 15 -10 5 3 9 0 9 -5 0 -6 -4 -11 -10 -11 -5 0 -7 -7 -4 -15
4 -8 10 -12 15 -9 5 3 9 0 9 -5 0 -6 -4 -11 -9 -11 -12 0 -5 -38 24 -140 22
-77 32 -116 41 -157 2 -13 6 -33 8 -45 3 -13 7 -34 10 -48 4 -14 8 -52 11 -85
12 -135 17 -176 41 -297 13 -70 24 -138 24 -150 -1 -123 18 -350 29 -344 3 2
7 -22 7 -55 2 -49 20 -228 39 -372 4 -29 2 -37 -7 -31 -10 6 -10 4 -3 -7 6 -8
9 -39 7 -69 -2 -30 -2 -136 -1 -235 8 -495 -7 -880 -40 -1035 -11 -52 -25
-169 -31 -260 -6 -91 -17 -187 -25 -215 -7 -27 -19 -72 -26 -100 -6 -27 -20
-77 -30 -110 -18 -61 -41 -181 -79 -429 -25 -162 -69 -308 -121 -407 -10 -20
-19 -43 -19 -51 0 -8 -11 -36 -25 -62 -14 -26 -25 -54 -25 -62 0 -8 -11 -37
-25 -64 -14 -27 -25 -55 -25 -63 0 -17 -56 -133 -80 -167 -10 -14 -23 -45 -30
-70 -23 -86 -152 -494 -168 -529 -9 -20 -22 -43 -28 -51 -7 -8 -31 -51 -53
-94 -23 -44 -45 -84 -50 -90 -5 -6 -38 -83 -74 -171 -119 -292 -173 -409 -220
-477 -25 -36 -55 -84 -65 -105 -11 -21 -41 -60 -67 -87 -25 -27 -57 -69 -71
-93 -14 -23 -30 -43 -35 -43 -5 0 -23 -23 -40 -50 -17 -28 -35 -48 -39 -45 -5
3 -12 -4 -15 -16 -4 -11 -26 -44 -50 -73 -24 -30 -50 -68 -59 -85 -9 -17 -20
-31 -24 -31 -4 0 -20 -24 -36 -52 -30 -53 -168 -198 -239 -251 -27 -21 -36
-34 -32 -47 4 -13 -4 -25 -27 -41 -44 -30 -98 -88 -98 -105 0 -8 -7 -14 -15
-14 -9 0 -30 -21 -48 -47 -26 -39 -132 -149 -197 -206 -8 -8 -32 -32 -53 -55
-21 -23 -41 -42 -45 -42 -4 0 -35 -27 -67 -61 -91 -92 -165 -166 -165 -165 0
5 -142 -130 -233 -222 -62 -61 -118 -112 -125 -112 -8 0 -54 -40 -104 -90 -49
-49 -132 -122 -184 -161 -52 -39 -98 -79 -104 -89 -5 -10 -40 -41 -77 -70 -38
-29 -89 -73 -114 -99 -106 -107 -239 -201 -286 -201 -18 0 -33 -3 -33 -8 0
-12 -59 -34 -100 -37 -21 -2 -46 -7 -56 -12 -11 -5 -43 -9 -71 -8 -42 1 -53
-2 -53 -14 0 -12 -3 -13 -8 -4 -10 16 -141 -21 -162 -47 -19 -22 -93 -60 -118
-60 -11 0 -36 -11 -56 -25 -66 -45 -114 -65 -155 -65 -22 0 -53 -6 -68 -12
-32 -14 -130 -78 -186 -121 -45 -35 -129 -67 -156 -60 -11 3 -43 -3 -71 -12
-28 -9 -67 -17 -86 -17 -23 0 -51 -11 -83 -33 -26 -18 -68 -39 -92 -46 -24 -7
-55 -20 -69 -28 -14 -9 -43 -24 -65 -35 -22 -10 -47 -22 -55 -27 -37 -22 -68
-32 -98 -30 -39 2 -149 -18 -175 -31 -10 -5 -16 -16 -13 -23 6 -16 -6 -21 -64
-24 -80 -5 -120 -51 -44 -51 44 0 44 -16 -1 -29 -23 -6 -46 -6 -71 2 -26 8
-40 8 -54 -1 -11 -6 -27 -9 -36 -5 -10 4 -20 0 -26 -11 -9 -15 -43 -16 -67 -1
-10 6 -30 -23 -28 -40 1 -5 -13 -11 -30 -13 -18 -2 -33 -8 -33 -13 0 -6 -8 -5
-20 1 -47 25 -227 -39 -213 -76 3 -8 0 -14 -5 -14 -6 0 -12 8 -15 18 -3 14 -6
13 -14 -7 -5 -14 -13 -20 -16 -14 -8 13 -122 -12 -156 -34 l-25 -16 22 -8 c26
-10 30 -29 5 -24 -10 2 -26 4 -35 4 -10 1 -15 7 -12 15 8 20 -26 15 -61 -11
-32 -22 -80 -22 -100 1 -12 14 -55 18 -55 5 0 -5 -6 -9 -14 -9 -7 0 -19 -7
-26 -15 -8 -9 -31 -15 -59 -16 -44 -1 -44 -1 -16 -10 17 -5 38 -7 47 -5 10 2
21 0 24 -6 4 -6 10 -5 15 3 6 11 11 11 21 1 7 -7 8 -15 2 -21 -13 -12 -97 -31
-138 -31 -21 0 -38 -6 -43 -15 -7 -12 -29 -16 -93 -16 -63 -1 -90 -6 -105 -18
-25 -21 -71 -26 -90 -11 -7 6 -28 10 -46 9 -19 -1 -42 2 -51 6 -13 5 -18 3
-18 -8 0 -9 5 -19 10 -22 12 -7 14 -26 3 -23 -5 0 -16 -2 -27 -7 -11 -5 -26
-3 -37 3 -29 19 -67 14 -79 -8 -10 -18 -19 -20 -92 -16 -69 3 -83 1 -99 -15
-16 -16 -39 -20 -156 -24 -101 -3 -139 -1 -146 8 -5 8 -10 8 -13 2 -2 -6 -30
-10 -64 -9 -34 0 -63 -3 -66 -7 -3 -5 -25 -6 -49 -3 -36 4 -47 1 -64 -17 -19
-20 -32 -23 -123 -25 -102 -2 -271 -11 -275 -15 -2 -1 -6 -2 -10 -3 -5 -1 -25
-8 -45 -14 -21 -8 -91 -13 -170 -14 -93 -1 -140 -5 -155 -14 -29 -18 -61 -18
-80 1 -10 11 -27 14 -57 10 -29 -3 -49 0 -62 10 -22 17 -189 21 -199 5 -3 -5
-23 -10 -43 -10 -20 -1 -55 -7 -77 -15 -49 -18 -77 -19 -94 -2 -7 7 -43 12
-94 13 -99 1 -241 12 -299 22 -24 5 -57 5 -75 2 -51 -11 -195 -11 -238 0 -22
6 -56 12 -75 15 -19 2 -44 6 -55 9 -11 2 -30 5 -42 5 -12 1 -29 8 -37 17 -12
12 -16 12 -16 2 0 -10 -3 -9 -10 2 -8 12 -10 12 -10 1 0 -14 -6 -14 -215 4
-44 4 -84 10 -90 14 -17 14 -102 31 -182 37 -43 4 -85 13 -94 20 -9 8 -18 11
-21 8 -4 -3 -42 -5 -85 -5 -43 1 -91 2 -108 2 -16 0 -46 5 -65 12 -19 6 -47
10 -62 8 -14 -1 -41 6 -60 15 -18 10 -43 17 -54 15 -12 -1 -28 5 -37 13 -9 10
-32 15 -62 14 -33 0 -50 4 -56 15 -5 8 -28 18 -52 22 -23 4 -60 17 -82 28 -51
27 -130 40 -228 38 -58 -1 -79 2 -83 13 -4 11 -38 24 -77 30 -4 1 -11 7 -16
14 -7 11 -9 11 -14 -2 -9 -22 -26 -20 -91 10 -31 14 -64 23 -75 19 -12 -3 -37
7 -71 30 -28 19 -62 35 -75 35 -43 0 -85 12 -85 25 0 13 -83 45 -116 45 -9 0
-22 7 -28 15 -6 9 -21 17 -34 18 -12 0 -22 5 -22 9 0 4 -9 8 -19 8 -10 0 -21
7 -25 15 -3 9 -18 15 -37 15 -26 0 -31 -3 -26 -20 4 -15 0 -20 -13 -20 -11 0
-21 4 -25 10 -3 5 -31 17 -63 26 -72 22 -81 30 -57 48 15 11 22 11 27 3 5 -8
8 -7 8 4 0 9 -7 20 -16 23 -26 10 -72 7 -76 -5 -3 -8 -10 -6 -20 5 -9 9 -21
16 -27 16 -6 0 -29 11 -50 24 -21 14 -41 22 -45 19 -3 -3 -12 0 -20 6 -10 8
-16 9 -21 1 -9 -14 -47 -12 -69 5 -10 8 -23 12 -27 9 -5 -3 -9 -1 -9 3 0 5 -7
18 -15 29 -15 19 -15 19 -8 -1 3 -11 3 -17 -2 -13 -4 4 -13 4 -19 -1 -7 -5
-26 -3 -49 6 -30 12 -35 18 -26 29 13 16 4 48 -10 39 -6 -3 -8 -12 -4 -20 3
-8 0 -15 -6 -15 -6 0 -11 4 -11 10 0 5 -8 7 -17 3 -10 -3 -15 -3 -11 1 12 14
-15 33 -39 28 -13 -2 -23 0 -23 5 0 5 -12 10 -27 11 -16 1 -34 10 -41 19 -8
12 -23 17 -47 15 -26 -3 -36 1 -45 18 -6 12 -9 26 -7 33 2 7 -12 19 -31 28
-19 9 -63 44 -98 78 l-63 62 -68 -3 c-61 -2 -71 0 -92 21 -16 16 -26 20 -33
13 -12 -12 -44 0 -103 39 -58 38 -141 79 -163 79 -10 0 -22 4 -28 10 -5 5 -49
12 -99 15 -49 3 -91 9 -95 14 -9 14 -50 24 -50 12 0 -6 9 -11 19 -11 11 0 26
-8 33 -19 22 -30 69 -49 118 -46 36 3 42 1 29 -8 -27 -21 -30 -45 -6 -53 24
-8 83 -64 80 -76 -2 -4 3 -8 10 -8 15 0 46 -22 92 -67 74 -71 -15 -39 -124 45
-41 31 -91 68 -112 82 -21 14 -90 64 -153 113 -63 48 -125 93 -138 100 -30 15
-125 84 -158 114 -14 13 -34 26 -45 29 -11 4 -45 31 -75 61 -31 29 -89 76
-130 104 -41 28 -75 57 -76 65 -3 18 -120 126 -153 141 -14 6 -35 20 -45 32
-10 11 -23 18 -27 15 -5 -3 -12 2 -15 10 -3 9 -12 16 -19 16 -7 0 -15 7 -19
15 -3 8 -10 15 -15 15 -6 0 -29 20 -52 45 -23 25 -47 45 -54 45 -7 0 -15 7
-19 15 -3 8 -18 21 -33 27 -15 7 -66 50 -113 96 -47 47 -96 92 -110 101 -55
35 -202 174 -199 188 1 4 -17 17 -38 28 -38 19 -71 49 -168 156 -23 24 -62 61
-88 83 -26 21 -47 43 -47 48 0 13 -82 87 -96 88 -7 0 -24 17 -40 38 -16 20
-63 72 -106 114 -43 42 -78 81 -78 86 0 5 -29 40 -65 78 -35 38 -72 84 -82
101 -10 18 -21 33 -24 33 -10 0 -83 102 -89 125 -3 11 -10 20 -15 21 -24 2
-46 18 -63 48 -11 18 -29 44 -41 57 -12 13 -48 54 -81 91 -48 54 -78 105 -158
270 -55 112 -119 248 -143 303 -42 97 -99 198 -118 209 -5 4 -12 19 -16 36 -3
16 -19 45 -35 65 -16 20 -32 46 -36 58 -3 12 -12 29 -19 37 -17 19 -44 87
-115 290 -75 212 -80 225 -136 306 -26 38 -51 84 -57 104 -5 19 -21 55 -36 80
-28 48 -71 148 -71 165 0 16 -66 150 -89 182 -18 25 -85 297 -106 433 -4 25
-15 63 -25 85 -10 23 -22 54 -25 70 -4 17 -13 47 -21 68 -8 20 -14 50 -14 66
0 16 -12 55 -26 87 -24 55 -50 186 -69 354 -2 19 -6 50 -9 68 -13 74 -17 98
-20 123 -2 15 -7 33 -12 40 -4 7 -11 36 -15 64 -5 27 -13 77 -19 110 -6 33
-13 114 -15 180 -5 145 -14 225 -25 225 -4 0 -8 111 -9 248 -1 136 -4 263 -7
282 -3 19 -7 44 -8 55 -2 11 1 30 5 43 6 15 5 21 -1 17 -20 -12 -21 52 -4 311
9 148 18 350 20 449 1 126 9 225 25 330 13 83 22 184 21 225 -1 52 9 128 32
245 49 246 57 302 50 331 -5 20 -4 25 6 19 9 -5 10 -2 6 11 -3 11 1 44 9 74 8
30 15 72 15 93 0 26 4 36 12 31 7 -4 8 -3 4 4 -7 12 20 177 32 196 3 6 7 19 8
31 2 11 16 65 33 120 16 55 45 165 64 245 20 80 47 177 62 215 15 39 28 75 29
80 2 6 8 23 14 38 7 15 15 40 18 55 12 53 67 216 95 286 16 38 27 76 24 84 -2
7 -1 11 4 8 8 -5 27 31 33 64 2 8 6 17 9 20 11 10 39 92 34 100 -3 5 -1 11 5
15 6 4 7 11 4 17 -4 7 -2 8 4 4 7 -4 12 -1 12 7 0 8 22 65 50 127 27 62 47
117 43 123 -3 5 -1 7 4 4 13 -8 26 20 16 35 -4 7 -1 8 7 3 10 -6 12 -4 7 9 -5
11 -3 15 5 10 8 -5 9 -2 5 10 -5 11 -3 15 5 10 8 -5 9 -1 4 12 -4 10 -4 15 0
11 4 -4 27 40 50 97 24 58 57 130 75 160 17 31 28 56 24 56 -3 0 1 7 9 16 9 8
14 19 11 24 -3 4 2 11 11 14 9 4 14 13 10 22 -3 8 -2 12 4 9 6 -3 10 1 10 9 0
9 5 16 11 16 8 0 7 5 -1 15 -11 13 -10 14 6 8 17 -6 17 -5 5 10 -12 15 -12 17
4 11 13 -5 16 -4 11 4 -4 7 -2 12 5 12 7 0 10 3 6 6 -3 3 3 16 14 27 11 12 17
27 15 34 -3 7 -1 13 5 13 6 0 7 5 4 10 -3 6 2 10 12 10 15 0 16 2 3 10 -10 6
-11 10 -2 10 6 0 12 7 12 16 0 8 4 12 10 9 5 -3 7 0 4 9 -3 8 3 23 13 34 10
10 19 25 21 33 2 8 8 16 13 17 5 2 7 8 3 13 -3 5 3 9 13 9 15 0 16 2 3 10 -13
8 -13 10 2 10 11 0 15 5 12 14 -3 8 3 23 14 34 11 11 18 23 14 26 -3 3 0 6 7
6 7 0 10 4 7 9 -3 5 1 12 10 15 9 4 14 13 10 22 -4 10 -2 13 6 8 8 -5 9 -2 5
10 -4 10 -3 15 3 11 9 -6 32 28 28 42 -2 5 11 22 28 38 16 17 21 23 11 15 -19
-14 -19 -14 -6 8 8 12 17 22 21 22 5 0 8 6 8 14 0 8 9 24 21 37 l21 24 -16
-25 c-9 -13 -16 -29 -16 -35 1 -16 34 48 35 68 1 10 10 26 20 35 18 16 18 16
4 -3 -13 -18 -12 -19 2 -7 10 7 15 21 12 32 -3 11 -1 20 5 20 6 0 14 9 17 20
3 11 14 20 23 21 10 0 12 3 5 5 -8 4 -7 11 4 24 9 10 21 16 27 13 6 -4 4 2 -4
12 -8 10 -10 16 -5 13 6 -4 26 20 45 53 19 32 40 59 46 59 6 0 18 8 25 17 10
11 10 14 2 9 -7 -4 -13 -3 -13 1 0 5 10 14 21 22 18 11 19 15 8 23 -11 7 -9 9
7 5 18 -4 22 0 19 20 -2 16 2 23 11 19 7 -3 18 7 26 24 7 16 17 26 23 22 5 -3
4 2 -4 11 -12 15 -12 17 2 11 12 -4 15 -1 12 16 -3 18 -2 20 10 10 11 -9 12
-7 8 12 -4 18 -3 20 6 8 9 -13 11 -12 11 3 0 12 4 16 12 11 8 -5 7 0 -2 11 -9
11 -10 16 -3 11 8 -4 13 -1 13 9 0 9 4 14 9 11 11 -7 23 22 16 35 -4 5 1 6 10
3 11 -5 14 -2 8 12 -4 11 -3 15 4 11 14 -9 37 19 27 34 -4 7 -3 9 4 5 13 -8
35 28 24 39 -4 5 -2 5 5 1 14 -8 36 27 25 39 -4 5 -2 6 4 2 13 -7 43 24 128
136 39 51 64 93 60 100 -4 7 -4 9 1 5 11 -10 57 41 49 54 -4 6 -3 9 2 6 11 -7
36 17 27 26 -3 3 4 3 17 1 17 -3 20 -2 10 10 -8 10 -8 15 1 21 7 4 9 3 6 -3
-3 -5 0 -10 8 -10 11 0 12 5 3 20 -7 14 -7 17 1 13 6 -4 11 -2 11 3 0 6 4 11
10 11 8 0 94 86 101 101 7 18 233 244 241 241 5 -1 7 2 4 7 -3 5 1 14 9 21 18
15 20 34 3 24 -8 -4 -10 -3 -5 2 5 5 14 9 20 9 7 1 11 6 9 13 -1 7 4 11 10 10
7 -2 12 3 10 10 -1 8 2 11 7 8 5 -3 54 42 110 100 64 68 104 103 112 98 7 -4
9 -3 6 2 -11 18 187 209 205 198 6 -4 9 -3 6 2 -3 5 8 22 23 38 27 26 28 27
24 6 -2 -13 -1 -20 2 -16 4 4 8 13 9 20 3 20 46 66 61 66 8 0 11 5 7 12 -5 8
-2 9 10 5 9 -4 15 -3 12 2 -8 12 19 33 29 23 5 -4 5 2 1 12 -6 16 -4 17 9 6 9
-7 15 -9 14 -4 -4 21 2 34 14 31 6 -1 11 4 9 12 -3 12 0 12 12 2 13 -11 15 -9
11 9 -2 13 -2 20 2 17 3 -3 12 1 20 9 8 8 20 11 26 7 6 -4 8 0 4 10 -4 12 -2
14 10 10 11 -4 14 -2 9 5 -7 11 6 17 28 13 5 -1 6 5 3 13 -4 11 -1 13 10 9 11
-4 14 -2 9 5 -7 11 6 17 28 13 5 -1 6 5 2 14 -3 9 -2 13 4 10 5 -3 18 3 29 14
11 11 22 17 25 14 3 -3 8 2 12 11 3 9 11 16 18 16 6 0 17 9 24 20 7 11 17 20
23 20 6 0 17 7 26 15 8 8 19 13 24 9 5 -3 8 0 7 7 -2 7 8 18 21 25 13 7 28 20
33 28 5 9 14 16 19 16 6 0 17 7 26 15 8 8 20 12 26 8 7 -3 9 -3 5 2 -9 9 38
46 183 143 58 39 113 78 122 87 9 8 20 16 24 17 4 0 62 37 128 81 66 44 126
80 132 80 7 0 11 2 8 5 -8 9 86 62 98 56 7 -4 9 -4 5 1 -11 11 191 130 482
283 58 30 110 59 117 64 7 5 18 6 25 2 7 -4 10 -4 6 1 -10 11 41 37 55 28 6
-4 7 -1 2 7 -6 10 -4 12 9 7 9 -4 15 -3 12 2 -7 11 43 33 56 25 6 -4 8 -3 5 3
-6 10 101 66 127 66 8 0 13 4 10 9 -5 7 13 12 44 11 7 -1 11 2 8 5 -9 8 75 43
87 35 5 -3 8 -2 4 3 -3 5 54 34 126 63 73 30 147 62 165 73 19 10 30 13 26 6
-4 -7 2 -4 14 6 12 11 22 16 22 12 0 -3 11 1 25 10 14 9 25 13 25 10 0 -4 10
0 23 8 12 8 27 16 32 16 6 1 25 8 44 16 18 8 39 14 46 14 6 0 15 3 19 8 4 4
12 8 17 8 5 1 11 3 14 4 3 1 8 3 13 4 4 1 17 7 30 14 12 7 22 10 22 6 0 -3 7
-1 15 6 8 7 15 9 15 5 0 -4 6 -2 13 4 8 6 17 8 20 4 4 -3 7 -2 7 4 0 5 7 10
15 11 8 1 22 3 30 4 8 1 15 4 15 8 0 4 7 7 15 8 8 1 22 3 30 4 8 1 15 6 15 11
0 6 3 7 7 4 3 -4 12 -2 20 4 7 6 13 8 13 4 0 -4 8 -1 17 6 14 12 15 12 9 0 -6
-9 -1 -8 16 3 14 9 28 13 31 9 4 -3 7 0 7 7 0 7 3 10 7 7 3 -4 13 -1 21 6 13
10 14 9 7 -3 -8 -13 -6 -13 8 -2 9 8 22 10 28 6 8 -4 9 -3 5 4 -6 11 19 18 47
13 4 0 7 3 7 7 0 9 8 11 54 14 14 1 22 6 20 10 -3 4 4 9 15 10 12 0 27 1 34 2
6 1 14 4 17 7 9 10 123 39 131 33 5 -3 9 -2 9 3 0 4 16 13 35 19 24 8 32 8 28
0 -4 -6 0 -5 9 2 9 7 25 15 37 17 48 11 60 14 97 24 37 10 77 18 99 22 6 0 19
6 30 12 11 6 24 10 28 9 4 -1 36 4 70 12 34 8 65 12 69 10 5 -3 8 -1 8 5 0 5
11 8 25 6 14 -1 25 2 25 8 0 6 3 7 6 4 4 -3 16 -2 27 4 11 7 17 7 13 1 -3 -5
11 -4 32 3 36 13 52 16 137 30 38 6 54 9 120 22 17 3 40 6 53 7 12 0 22 3 22
6 0 3 10 6 23 7 12 0 42 4 67 7 25 4 57 8 71 10 15 2 32 7 39 11 9 6 11 4 5
-6 -7 -11 -6 -12 6 -3 8 6 24 10 37 9 12 -1 22 1 22 5 0 3 10 6 23 7 28 1 102
11 102 13 0 1 18 3 40 4 23 1 47 6 54 11 10 6 12 4 6 -6 -7 -11 -6 -12 6 -3 8
5 21 10 29 9 8 -1 23 3 34 8 14 7 16 6 11 -4 -6 -9 -4 -10 6 -3 8 5 32 10 54
10 22 1 40 3 40 4 0 1 16 3 35 4 20 1 42 6 49 11 10 6 12 4 6 -6 -6 -11 -5
-12 6 -1 7 6 17 12 22 12 4 0 5 -6 1 -12 -6 -10 -4 -10 7 -2 8 6 28 11 45 11
16 0 35 3 42 7 7 4 12 2 12 -4 0 -7 5 -8 13 -3 6 4 19 8 27 8 8 0 21 4 29 9
10 7 12 6 6 -4 -6 -10 -4 -11 6 -4 23 14 51 15 44 2 -4 -7 1 -4 9 6 16 20 16
20 17 0 1 -17 2 -17 6 -1 5 18 5 18 20 0 8 -10 11 -12 7 -4 -5 10 -1 11 16 6
13 -4 20 -3 17 2 -4 5 0 10 8 10 8 0 11 -5 8 -11 -3 -6 0 -5 8 2 7 6 17 12 22
12 4 0 5 -6 1 -12 -5 -10 -4 -10 6 -1 11 10 17 10 29 0 10 -8 13 -8 8 0 -10
16 12 22 45 12 16 -4 30 -3 33 2z m7130 -2721 c3 -5 1 -10 -4 -10 -6 0 -11 5
-11 10 0 6 2 10 4 10 3 0 8 -4 11 -10z m26 -37 c13 -16 12 -17 -3 -4 -17 13
-22 21 -14 21 2 0 10 -8 17 -17z m-13801 -206 c0 -2 -12 -14 -27 -28 l-28 -24
24 28 c23 25 31 32 31 24z m-60 -80 c0 -2 -12 -14 -27 -28 l-28 -24 24 28 c23
25 31 32 31 24z m-100 -100 c-28 -27 -35 -31 -19 -12 37 47 54 63 59 59 2 -3
-16 -24 -40 -47z m-95 -105 l-39 -37 35 41 c19 22 36 39 39 37 2 -2 -13 -20
-35 -41z m-295 -356 c0 -2 -8 -10 -17 -17 -16 -13 -17 -12 -4 4 13 16 21 21
21 13z m-329 -429 c-10 -9 -11 -8 -5 6 3 10 9 15 12 12 3 -3 0 -11 -7 -18z
m17286 -3339 c-3 -8 -6 -5 -6 6 -1 11 2 17 5 13 3 -3 4 -12 1 -19z m10 -40
c-3 -8 -6 -5 -6 6 -1 11 2 17 5 13 3 -3 4 -12 1 -19z m10 -40 c-3 -8 -6 -5 -6
6 -1 11 2 17 5 13 3 -3 4 -12 1 -19z m10 -40 c-3 -8 -6 -5 -6 6 -1 11 2 17 5
13 3 -3 4 -12 1 -19z m-18920 -310 c-3 -8 -6 -5 -6 6 -1 11 2 17 5 13 3 -3 4
-12 1 -19z m-10 -50 c-3 -7 -5 -2 -5 12 0 14 2 19 5 13 2 -7 2 -19 0 -25z
m-10 -40 c-3 -8 -6 -5 -6 6 -1 11 2 17 5 13 3 -3 4 -12 1 -19z m-4 -43 c-3 -9
-8 -14 -10 -11 -3 3 -2 9 2 15 9 16 15 13 8 -4z m4415 -9175 c30 -28 28 -33
-8 -15 -16 9 -30 20 -30 25 0 16 14 12 38 -10z m8532 -470 c-11 -21 -40 -24
-47 -4 -3 9 47 34 55 28 2 -1 -2 -12 -8 -24z m-270 -31 c0 -11 -4 -18 -10 -14
-5 3 -7 12 -3 20 7 21 13 19 13 -6z m30 11 c0 -5 -4 -10 -10 -10 -5 0 -10 5
-10 10 0 6 5 10 10 10 6 0 10 -4 10 -10z m-266 -102 c-7 -12 -44 -10 -44 2 0
5 11 9 24 8 14 -1 22 -6 20 -10z"/>
<path d="M16967 17854 c-4 -4 9 -19 28 -34 19 -15 31 -31 27 -35 -4 -5 -1 -5
6 0 10 5 6 15 -19 41 -37 38 -34 36 -42 28z"/>
<path d="M17256 17578 c3 -10 10 -18 16 -18 5 0 6 -5 2 -12 -4 -6 -3 -8 4 -4
6 3 14 1 19 -6 9 -14 43 -43 43 -36 0 2 -21 24 -46 48 -25 25 -42 37 -38 28z"/>
<path d="M17355 17460 c-4 -6 -1 -9 7 -8 7 2 12 -2 11 -8 -1 -6 5 -11 13 -11
11 0 11 4 -3 19 -19 21 -20 21 -28 8z"/>
<path d="M13180 15569 c-207 -23 -429 -87 -593 -169 -351 -177 -595 -419 -751
-745 -62 -129 -85 -195 -125 -365 -45 -188 -61 -315 -68 -526 -22 -715 227
-1529 755 -2469 224 -399 577 -917 913 -1341 190 -240 248 -311 263 -323 15
-12 45 -7 229 38 664 163 1364 386 1732 551 717 322 1107 548 1515 879 96 78
381 354 457 443 132 153 271 363 362 545 224 450 268 857 136 1260 -117 357
-358 684 -670 908 -114 83 -348 200 -490 247 -190 63 -313 83 -520 82 -202 0
-289 -13 -460 -69 -241 -79 -481 -224 -702 -426 -48 -44 -90 -76 -93 -72 -4 5
-15 53 -25 108 -52 290 -149 549 -281 747 -92 139 -274 322 -410 411 -339 224
-777 331 -1174 286z"/>
<path d="M7640 15514 c-14 -2 -59 -9 -99 -15 -165 -24 -359 -87 -516 -165
-350 -176 -593 -449 -748 -839 -42 -106 -99 -301 -116 -400 -7 -38 -15 -76
-17 -84 -3 -8 -28 10 -74 52 -419 395 -811 564 -1265 544 -689 -30 -1317 -480
-1568 -1122 -118 -304 -142 -578 -77 -889 63 -296 210 -597 449 -916 164 -220
532 -565 811 -762 354 -248 816 -504 1260 -697 80 -34 154 -67 165 -71 227
-100 776 -287 1230 -419 96 -28 415 -111 426 -111 10 0 238 269 423 499 546
681 925 1277 1205 1896 201 445 319 825 382 1229 30 193 37 556 15 736 -31
245 -97 479 -186 664 -211 435 -638 741 -1190 852 -81 16 -445 29 -510 18z"/>
<path d="M4423 8034 c-9 -23 4 -315 22 -474 112 -1047 584 -2017 1375 -2824
445 -454 925 -807 1505 -1107 854 -441 1783 -682 2815 -730 324 -15 697 -2
1045 37 1992 219 3726 1282 4615 2829 84 146 237 461 295 610 146 371 246 771
291 1165 20 175 25 501 7 507 -6 2 -40 -33 -74 -79 -323 -425 -903 -776 -1749
-1059 -1736 -579 -4333 -754 -6521 -439 -1756 253 -3016 791 -3544 1513 -49
67 -70 81 -82 51z"/>
<path d="M5810 3301 c0 -15 16 -22 35 -15 13 5 14 8 3 15 -18 12 -38 11 -38 0z"/>
<path d="M5895 3250 c3 -5 15 -10 26 -10 11 0 17 5 14 10 -3 6 -15 10 -26 10
-11 0 -17 -4 -14 -10z"/>
<path d="M5957 3224 c6 -16 13 -17 33 -4 16 11 15 11 -17 15 -14 1 -20 -2 -16
-11z"/>
<path d="M6127 3143 c-4 -3 -7 -11 -7 -17 0 -6 5 -5 12 2 6 6 9 14 7 17 -3 3
-9 2 -12 -2z"/>
<path d="M6590 2960 c0 -14 26 -23 41 -15 8 6 7 10 -2 16 -19 12 -39 11 -39
-1z"/>
<path d="M13085 2710 c-8 -13 15 -13 35 0 12 8 11 10 -7 10 -12 0 -25 -4 -28
-10z"/>
<path d="M12315 2480 c-3 -6 1 -7 9 -4 18 7 21 14 7 14 -6 0 -13 -4 -16 -10z"/>
</g>
</svg>
